<svg xmlns="http://www.w3.org/2000/svg" viewBox="3.5 8.375 139 108.624">
  <g stroke="currentColor">
    <rect width="20" height="30" x="6.5" y="46.999" fill="none" stroke-width="6" rx="5"></rect>
    <rect width="20" height="30" x="119.5" y="46.749" fill="none" stroke-width="6" rx="5"></rect>

    <path fill="currentColor" color="currentColor" d="M45.974 77.187c-1.222 1.065-1.354 2.923-.246 4.105 8.784 9.374 18.034 14.506 27.65 14.506 9.302 0 18.26-4.802 26.787-13.599 1.61-1.66 1.417-4.316-.327-5.835-1.202-1.048-3.293-.593-4.763.926-7.634 7.89-14.836 11.433-21.696 11.433-6.796 0-13.926-3.476-21.48-11.21-1.598-1.636-4.201-1.828-5.925-.327z"></path>

    <rect width="93.125" height="94.375" x="26.437" y="17.936" fill="none" stroke-width="9.375" rx="18.625"></rect>
  </g>

  <g fill="currentColor" stroke="currentColor">
    <ellipse cx="57.573" cy="53.59" rx="7.172" ry="7.09" stroke-width="0.713"></ellipse>
    <ellipse cx="87.061" cy="53.59" rx="7.172" ry="7.09" stroke-width="0.713"></ellipse>

    <!-- sidebars (kept, fully visible) -->
    <rect width="0.548" height="33.798" x="132.23" y="12.101" stroke-linejoin="bevel" stroke-width="7.452" rx="1.828" ry="1.519"></rect>

    <rect width="0.555" height="33.305" x="13.472" y="12.097" stroke-linejoin="bevel" stroke-width="7.445" rx="1.851" ry="1.497"></rect>
  </g>
</svg>
