<?xml version="1.0" encoding="UTF-8" standalone="no"?>
<!-- Created with Inkscape (http://www.inkscape.org/) -->

<svg
   width="292.47067mm"
   height="49.900448mm"
   viewBox="0 0 292.47068 49.900448"
   version="1.1"
   id="svg298"
   inkscape:version="1.2.2 (732a01da63, 2022-12-09)"
   sodipodi:docname="rr-name-logo.svg"
   xmlns:inkscape="http://www.inkscape.org/namespaces/inkscape"
   xmlns:sodipodi="http://sodipodi.sourceforge.net/DTD/sodipodi-0.dtd"
   xmlns="http://www.w3.org/2000/svg"
   xmlns:svg="http://www.w3.org/2000/svg">
  <sodipodi:namedview
     id="namedview300"
     pagecolor="#ffffff"
     bordercolor="#000000"
     borderopacity="0.25"
     inkscape:showpageshadow="2"
     inkscape:pageopacity="0.0"
     inkscape:pagecheckerboard="0"
     inkscape:deskcolor="#d1d1d1"
     inkscape:document-units="mm"
     showgrid="false"
     inkscape:zoom="0.73851712"
     inkscape:cx="502.35803"
     inkscape:cy="323.62148"
     inkscape:window-width="1920"
     inkscape:window-height="1009"
     inkscape:window-x="-8"
     inkscape:window-y="70"
     inkscape:window-maximized="1"
     inkscape:current-layer="layer1" />
  <defs
     id="defs295">
    <rect
       x="22.97924"
       y="63.192913"
       width="570.65112"
       height="206.81317"
       id="rect3073" />
  </defs>
  <g
     inkscape:label="Layer 1"
     inkscape:groupmode="layer"
     id="layer1"
     transform="translate(-63.698405,-10.770193)">
    <g
       aria-label="RatingsRobot"
       id="text3079"
       style="font-weight:600;font-size:52.9167px;font-family:'Cal Sans';-inkscape-font-specification:'Cal Sans, Semi-Bold';letter-spacing:-1.5875px;fill:#ff8800;stroke:#0db00d;stroke-width:0;stroke-linejoin:bevel">
      <path
         d="m 63.698405,12.357695 11.959174,-0.05292 q 6.297087,-0.05292 9.842506,2.910418 3.545419,2.963335 3.545419,8.360839 0,4.339169 -2.328335,7.037921 -2.275418,2.698751 -6.561671,3.651252 L 90.527171,49.399384 H 81.795916 L 73.911328,37.651876 q -0.740834,-1.164167 -1.428751,-2.698751 h -1.375834 v 14.446259 h -7.408338 z m 11.535841,15.927926 q 3.016251,0 4.656669,-1.164168 1.640418,-1.217084 1.640418,-3.492502 0,-2.222501 -1.640418,-3.386668 -1.640418,-1.217084 -4.656669,-1.217084 h -4.127503 v 9.260422 z"
         style="fill:#000000"
         id="path6105" />
      <path
         d="m 101.95723,50.087301 q -3.704168,0 -6.826254,-1.905002 -3.122085,-1.957917 -4.974169,-5.238753 -1.799168,-3.280835 -1.799168,-7.196671 0,-3.915835 1.799168,-7.196671 1.852084,-3.333752 4.974169,-5.291669 3.122086,-1.957918 6.826254,-1.957918 3.38667,0 5.45042,1.27 2.11667,1.270001 3.28084,3.651253 V 21.8827 h 7.09083 v 27.516684 h -6.93208 v -4.49792 q -1.21709,2.487085 -3.33376,3.862919 -2.06375,1.322918 -5.55625,1.322918 z M 95.501393,35.693959 q 0,2.116668 0.952501,3.968752 1.005417,1.799168 2.698751,2.910418 1.746255,1.058334 3.968755,1.058334 2.27542,0 4.02167,-1.058334 1.79916,-1.058334 2.75167,-2.857501 0.9525,-1.799168 0.9525,-3.968753 0,-2.169584 -0.9525,-3.968752 -0.95251,-1.852084 -2.75167,-2.910418 -1.74625,-1.111251 -4.02167,-1.111251 -2.2225,0 -3.968755,1.111251 -1.746251,1.058334 -2.698751,2.857501 -0.952501,1.799168 -0.952501,3.968753 z"
         style="fill:#000000"
         id="path6107" />
      <path
         d="m 130.84971,49.399384 q -4.18042,0 -6.29709,-2.063752 -2.11667,-2.063751 -2.11667,-6.455837 V 27.968121 h -3.86292 V 21.8827 h 3.86292 v -5.556253 l 7.14376,-0.740834 V 21.8827 h 5.82083 v 6.085421 h -5.82083 v 12.541257 q 0,2.540002 2.2225,2.540002 h 2.96333 v 6.350004 z"
         style="fill:#000000"
         id="path6109" />
      <path
         d="m 136.19425,21.8827 h 7.14375 v 27.516684 h -7.14375 z m -0.74084,-6.508754 q 0,-1.746251 1.21709,-2.963335 1.27,-1.217084 3.06917,-1.217084 1.85208,0 3.06916,1.217084 1.21709,1.217084 1.21709,2.963335 0,1.799168 -1.21709,3.016252 -1.21708,1.217084 -3.06916,1.217084 -1.79917,0 -3.06917,-1.217084 -1.21709,-1.270001 -1.21709,-3.016252 z"
         style="fill:#000000"
         id="path6111" />
      <path
         d="m 145.98384,21.8827 h 7.03792 v 4.021669 q 2.16959,-4.656669 8.41376,-4.656669 2.96334,0 5.34459,1.428751 2.38125,1.375834 3.75708,3.968752 1.37584,2.540002 1.37584,5.92667 v 16.827511 h -7.14376 v -15.08126 q 0,-3.439585 -1.5875,-5.132919 -1.5875,-1.693335 -4.33917,-1.693335 -2.43417,0 -4.07458,1.746251 -1.64042,1.693335 -1.64042,5.080003 v 15.08126 h -7.14376 z"
         style="fill:#000000"
         id="path6113" />
      <path
         d="m 187.68223,60.67064 q -4.33917,0 -7.56709,-1.217084 -3.22791,-1.164167 -5.60917,-3.968752 l 4.44501,-5.238753 q 1.85208,2.116668 3.91583,2.963335 2.11667,0.846667 4.86834,0.846667 1.905,0 3.54542,-1.005417 1.64041,-0.952501 2.59292,-2.698752 1.00541,-1.693334 1.00541,-3.810002 v -1.217084 q -1.21708,2.063751 -3.175,3.175002 -1.95792,1.058334 -5.13292,1.058334 -3.70417,0 -6.77334,-1.852085 -3.06916,-1.905001 -4.81542,-5.13292 -1.74625,-3.280835 -1.74625,-7.196671 0,-3.915835 1.74625,-7.143754 1.74626,-3.280835 4.81542,-5.13292 3.06917,-1.905001 6.77334,-1.905001 3.28084,0 5.23875,1.164168 2.01084,1.11125 3.17501,3.280835 V 21.8827 h 7.03792 v 25.082515 q 0,4.18042 -1.85209,7.249588 -1.79917,3.122085 -5.08,4.762503 -3.22792,1.693334 -7.40834,1.693334 z m -7.3025,-25.294182 q 0,3.280836 1.95792,5.503337 2.01083,2.169585 5.3975,2.169585 3.43958,0 5.45042,-2.169585 2.01083,-2.169585 2.01083,-5.503337 0,-3.333752 -2.01083,-5.503336 -2.01084,-2.169585 -5.45042,-2.169585 -3.38667,0 -5.3975,2.169585 -1.95792,2.169584 -1.95792,5.503336 z"
         style="fill:#000000"
         id="path6115" />
      <path
         d="m 214.08768,50.087301 q -6.93209,0 -11.43001,-4.81542 l 4.81542,-4.392086 q 3.01625,3.386669 6.45584,3.386669 1.79917,0 2.80458,-0.793751 1.00542,-0.79375 1.00542,-2.063751 0,-1.164167 -1.00542,-1.799168 -0.9525,-0.687917 -4.02167,-1.428751 -5.02708,-1.217084 -6.77333,-3.333752 -1.69334,-2.116667 -1.69334,-5.238753 0,-3.704169 2.75167,-6.032503 2.75167,-2.381252 7.51417,-2.381252 3.43959,0 5.76792,1.058334 2.38125,1.058334 4.445,3.704169 l -5.18583,3.968753 q -1.85209,-2.963336 -4.86834,-2.963336 -1.53458,0 -2.48708,0.635001 -0.9525,0.582083 -0.9525,1.799168 0,0.846667 0.68791,1.481667 0.74084,0.582084 3.01626,1.164167 5.66208,1.481668 7.72583,3.651253 2.11667,2.169584 2.11667,5.503336 0,2.487085 -1.42875,4.550836 -1.37583,2.010835 -3.81,3.175002 -2.43417,1.164168 -5.45042,1.164168 z"
         style="fill:#000000"
         id="path6117" />
      <path
         d="m 226.52313,12.357695 11.95917,-0.05292 q 6.29709,-0.05292 9.84251,2.910418 3.54542,2.963335 3.54542,8.360839 0,4.339169 -2.32834,7.037921 -2.27542,2.698751 -6.56167,3.651252 l 10.37167,15.134176 h -8.73125 l -7.88459,-11.747508 q -0.74083,-1.164167 -1.42875,-2.698751 h -1.37583 v 14.446259 h -7.40834 z m 11.53584,15.927926 q 3.01625,0 4.65667,-1.164168 1.64041,-1.217084 1.64041,-3.492502 0,-2.222501 -1.64041,-3.386668 -1.64042,-1.217084 -4.65667,-1.217084 h -4.1275 v 9.260422 z"
         id="path6119" />
      <path
         d="m 265.84029,50.087301 q -4.18042,0 -7.51417,-1.905002 -3.33376,-1.957917 -5.23876,-5.238753 -1.905,-3.333752 -1.905,-7.249587 0,-3.915836 1.905,-7.249588 1.905,-3.333752 5.23876,-5.238753 3.33375,-1.957918 7.51417,-1.957918 4.18042,0 7.51417,1.957918 3.33375,1.905001 5.23875,5.238753 1.905,3.333752 1.905,7.249588 0,3.915835 -1.905,7.249587 -1.905,3.280836 -5.23875,5.238753 -3.33375,1.905002 -7.51417,1.905002 z m -7.51417,-14.393342 q 0,2.169584 0.89958,3.968752 0.9525,1.799168 2.64583,2.857502 1.74626,1.058334 3.96876,1.058334 2.2225,0 3.91583,-1.058334 1.74625,-1.058334 2.64584,-2.857502 0.9525,-1.799168 0.9525,-3.968752 0,-2.169585 -0.9525,-3.968753 -0.9525,-1.799167 -2.64584,-2.857501 -1.69333,-1.111251 -3.91583,-1.111251 -2.2225,0 -3.91584,1.111251 -1.69333,1.058334 -2.64583,2.857501 -0.9525,1.799168 -0.9525,3.968753 z"
         id="path6121" />
      <path
         d="m 297.9078,50.087301 q -3.4925,0 -5.60917,-1.322918 -2.06375,-1.375834 -3.28083,-3.862919 v 4.49792 h -6.93209 v -38.62919 h 7.14376 v 15.345842 q 1.16416,-2.328335 3.22791,-3.545419 2.06376,-1.27 5.45042,-1.27 3.70417,0 6.82626,1.957918 3.12208,1.957917 4.92125,5.291669 1.85209,3.280836 1.85209,7.196671 0,3.915836 -1.85209,7.196671 -1.79917,3.280836 -4.92125,5.238753 -3.12209,1.905002 -6.82626,1.905002 z m -8.89,-14.340426 q 0,2.169585 0.9525,3.968753 0.9525,1.799167 2.69875,2.857501 1.79917,1.058334 4.07459,1.058334 2.2225,0 3.91583,-1.058334 1.74625,-1.11125 2.69875,-2.910418 1.00542,-1.852084 1.00542,-3.968752 0,-2.169585 -0.9525,-3.968753 -0.9525,-1.799167 -2.69875,-2.857501 -1.74625,-1.111251 -3.96875,-1.111251 -2.27542,0 -4.07459,1.111251 -1.74625,1.058334 -2.69875,2.910418 -0.9525,1.799168 -0.9525,3.968752 z"
         id="path6123" />
      <path
         d="m 326.4299,50.087301 q -4.18042,0 -7.51417,-1.905002 -3.33375,-1.957917 -5.23875,-5.238753 -1.905,-3.333752 -1.905,-7.249587 0,-3.915836 1.905,-7.249588 1.905,-3.333752 5.23875,-5.238753 3.33375,-1.957918 7.51417,-1.957918 4.18042,0 7.51417,1.957918 3.33375,1.905001 5.23876,5.238753 1.905,3.333752 1.905,7.249588 0,3.915835 -1.905,7.249587 -1.90501,3.280836 -5.23876,5.238753 -3.33375,1.905002 -7.51417,1.905002 z m -7.51417,-14.393342 q 0,2.169584 0.89958,3.968752 0.9525,1.799168 2.64584,2.857502 1.74625,1.058334 3.96875,1.058334 2.2225,0 3.91584,-1.058334 1.74625,-1.058334 2.64583,-2.857502 0.9525,-1.799168 0.9525,-3.968752 0,-2.169585 -0.9525,-3.968753 -0.9525,-1.799167 -2.64583,-2.857501 -1.69334,-1.111251 -3.91584,-1.111251 -2.2225,0 -3.91583,1.111251 -1.69334,1.058334 -2.64584,2.857501 -0.9525,1.799168 -0.9525,3.968753 z"
         id="path6125" />
      <path
         d="m 351.61824,49.399384 q -4.18042,0 -6.29709,-2.063752 -2.11666,-2.063751 -2.11666,-6.455837 V 27.968121 h -3.86292 V 21.8827 h 3.86292 v -5.556253 l 7.14375,-0.740834 V 21.8827 h 5.82084 v 6.085421 h -5.82084 v 12.541257 q 0,2.540002 2.2225,2.540002 h 2.96334 v 6.350004 z"
         id="path6127" />
    </g>
  </g>
</svg>
